<svg width="279" height="248" viewBox="0 0 279 248" fill="none" xmlns="http://www.w3.org/2000/svg">
<path d="M52.9944 202.356C53.0652 197.386 53.6625 192.962 54.6662 188.973C53.5727 192.962 52.9873 197.173 52.9873 201.526C52.9873 201.803 52.9897 202.08 52.9944 202.356Z" fill-rule="evenodd" clip-rule="evenodd" fill="#93A672"/>
<path d="M52.9874 203.313C52.9876 202.992 52.9901 202.673 52.9947 202.356C52.9974 202.506 53.0014 202.658 53.0055 202.807L53.0064 202.854L53.0116 202.938C53.0129 202.967 53.0126 202.995 53.0114 203.023C53.0122 203.047 53.0114 203.07 53.0097 203.094C53.0061 203.142 52.9987 203.19 52.9933 203.238C52.9899 203.278 52.9874 203.318 52.9874 203.358C52.9868 203.343 52.9868 203.328 52.9874 203.313Z" fill="#93A672"/>
<path d="M95.3771 247.329L95.3597 247.293L95.455 247.297L95.3771 247.329Z" fill="#93A672"/>
<path d="M53.011 203.023L53.0114 202.983L53.0107 202.938L53.006 202.854L53.0045 202.805C53.0052 202.82 53.0052 202.838 53.006 202.854C53.0073 202.882 53.0094 202.911 53.0107 202.938C53.0119 202.966 53.0098 202.996 53.011 203.023Z" fill-rule="evenodd" clip-rule="evenodd" fill="#93A672"/>
<path d="M53.0225 203.365C53.0225 203.34 53.0221 203.303 53.0218 203.277L53.0225 203.365Z" fill-rule="evenodd" clip-rule="evenodd" fill="#93A672"/>
<path d="M53.0049 202.807C53.0008 202.658 52.9973 202.506 52.9946 202.356Z" fill-rule="evenodd" clip-rule="evenodd" fill="#93A672"/>
<path d="M53.011 203.023C53.0115 203.04 53.0129 203.056 53.0144 203.072L53.0177 203.12C53.0156 203.06 53.0135 203.001 53.0108 202.941L53.0109 202.983C53.0106 202.997 53.0104 203.01 53.011 203.023ZM53.0016 202.693C53.0025 202.73 53.0035 202.768 53.0045 202.805Z" fill-rule="evenodd" clip-rule="evenodd" fill="#93A672"/>
<path d="M53.0227 203.363C53.0227 203.222 53.0169 203.082 53.0104 202.941L53.0105 202.983C53.0103 202.997 53.01 203.01 53.0106 203.023C53.0112 203.04 53.0126 203.056 53.014 203.072C53.0154 203.088 53.0168 203.104 53.0174 203.12L53.0192 203.174L53.0203 203.222L53.0215 203.276L53.0227 203.363Z" fill-rule="evenodd" clip-rule="evenodd" fill="#93A672"/>
<path d="M138.175 78.7919C138.368 78.7859 138.56 78.7812 138.753 78.7778C139.013 78.7731 139.273 78.7707 139.533 78.7707C139.079 78.7707 138.626 78.7778 138.175 78.7919ZM139.533 232.664C138.8 232.661 138.066 232.661 137.767 232.673C138.057 232.673 138.795 232.667 139.533 232.664Z" fill-rule="evenodd" clip-rule="evenodd" fill="#93A672"/>
<path d="M152.212 236.532C153.244 237.099 154.368 237.716 155.622 238.376C154.372 237.718 153.24 237.097 152.212 236.532ZM139.534 78.7707C139.08 78.7707 138.627 78.7778 138.176 78.7919C138.368 78.7859 138.56 78.7812 138.753 78.7778C139.013 78.7731 139.273 78.7707 139.534 78.7707Z" fill-rule="evenodd" clip-rule="evenodd" fill="#93A672"/>
<path d="M137.768 232.673C138.367 232.649 140.723 232.673 141.3 232.673C145.183 232.673 147.899 234.164 152.223 236.538C153.314 237.137 154.507 237.793 155.849 238.495L156.874 239.033C163.486 242.508 172.66 247.33 181.924 247.33C182.087 247.33 182.249 247.329 182.411 247.327C182.527 247.326 182.642 247.324 182.758 247.322C182.903 247.319 183.048 247.316 183.193 247.311C183.332 247.307 183.472 247.302 183.611 247.297L183.708 247.293C206.68 246.346 225.139 227.194 226.045 203.363C226.045 203.286 226.047 203.209 226.05 203.132C226.052 203.067 226.055 203.002 226.058 202.938L226.063 202.805C226.067 202.656 226.071 202.506 226.073 202.356C226.002 197.386 225.405 192.962 224.401 188.973C220.786 174.6 211.895 165.852 203.335 157.431C193.714 147.965 184.511 138.911 183.69 122.743L183.657 122.77C182.764 98.8827 164.238 79.6892 141.201 78.8026C140.648 78.7814 140.092 78.7707 139.534 78.7707C139.273 78.7707 139.013 78.7731 138.753 78.7778C138.424 78.7836 138.096 78.7932 137.768 78.8067C114.777 79.7449 96.3024 98.9173 95.4112 122.77L95.3776 122.743C94.5573 138.911 85.3545 147.965 75.7329 157.431C67.1733 165.852 58.2822 174.6 54.6665 188.973C53.6629 192.962 53.0656 197.386 52.9948 202.356C52.9974 202.506 53.0006 202.656 53.0046 202.805L53.0105 202.938C53.0168 203.079 53.0225 203.222 53.0225 203.363C53.9287 227.194 72.3876 246.346 95.3599 247.293L95.4568 247.297C95.7406 247.308 96.0251 247.317 96.3103 247.322C96.4258 247.324 96.5414 247.326 96.657 247.327C96.8191 247.329 96.9813 247.33 97.1439 247.33C106.408 247.33 115.582 242.508 122.194 239.033L123.219 238.495C123.48 238.358 123.735 238.224 123.984 238.091C124.193 237.98 124.397 237.871 124.598 237.763C125.402 237.331 126.151 236.919 126.857 236.532C131.181 234.157 133.885 232.673 137.768 232.673ZM120.988 141.064C131.231 141.064 139.534 149.814 139.534 160.607C139.534 149.814 147.837 141.064 158.079 141.064C168.322 141.064 176.625 149.814 176.625 160.607C176.625 182.194 145.716 199.695 139.534 199.694C133.352 199.693 102.443 182.195 102.443 160.608C102.443 149.815 110.746 141.064 120.988 141.064Z" fill-rule="evenodd" clip-rule="evenodd" fill="#93A672"/>
<path d="M90.4529 6.6389C75.0984 10.9067 73.425 39.8238 77.0822 53.9816C80.6167 67.6651 94.1757 75.7857 107.367 72.1192C120.558 68.4527 128.387 54.3875 124.852 40.7041C120.738 24.7764 105.807 2.37112 90.4529 6.6389Z" fill="#93A672"/>
<path d="M189.164 6.63879C173.809 2.37101 158.422 26.546 154.765 40.7039C151.23 54.3874 159.059 68.4526 172.25 72.1191C185.441 75.7856 199 67.665 202.535 53.9815C206.649 38.0539 204.518 10.9066 189.164 6.63879Z" fill="#93A672"/>
<path d="M261.515 74.9222C250.275 63.2624 225.296 76.2177 215.305 86.5821C205.648 96.5991 205.648 112.84 215.305 122.857C224.962 132.874 240.618 132.874 250.275 122.857C261.515 111.197 272.755 86.582 261.515 74.9222Z" fill="#93A672"/>
<path d="M17.485 74.922C6.24467 86.5818 18.7339 112.493 28.7253 122.857C38.3819 132.874 54.0385 132.874 63.6952 122.857C73.3519 112.84 73.3518 96.5989 63.6952 86.5819C52.4549 74.922 28.7253 63.2622 17.485 74.922Z" fill="#93A672"/>
</svg>
